<?xml version="1.0" encoding="utf-8"?>
<!-- Generator: Adobe Illustrator 18.0.0, SVG Export Plug-In . SVG Version: 6.00 Build 0)  -->
<!DOCTYPE svg PUBLIC "-//W3C//DTD SVG 1.1//EN" "http://www.w3.org/Graphics/SVG/1.1/DTD/svg11.dtd">
<svg version="1.1" xmlns="http://www.w3.org/2000/svg" xmlns:xlink="http://www.w3.org/1999/xlink" x="0px" y="0px"
	 viewBox="0 0 165 66" enable-background="new 0 0 165 66" xml:space="preserve">
<g id="Layer_3">
	<rect x="20" y="36" fill="#F15A24" width="2" height="2"/>
	<rect x="60" y="42" fill="#F15A24" width="2" height="2"/>
	<rect x="80" y="42" fill="#F15A24" width="2" height="2"/>
	<rect x="100" y="42" fill="#F15A24" width="2" height="2"/>
	<rect x="120" y="36" fill="#F15A24" width="2" height="2"/>
	<rect x="140" y="18" fill="#F15A24" width="2" height="2"/>
	<rect x="40" y="42" fill="#F15A24" width="2" height="2"/>
	<line fill="none" stroke="#F15A24" stroke-width="0.5" stroke-miterlimit="10" x1="21" y1="37" x2="1" y2="43"/>
	<line fill="none" stroke="#F15A24" stroke-width="0.5" stroke-miterlimit="10" x1="21" y1="37" x2="41" y2="43"/>
	<line fill="none" stroke="#F15A24" stroke-width="0.5" stroke-miterlimit="10" x1="41" y1="43" x2="61" y2="43"/>
	<line fill="none" stroke="#F15A24" stroke-width="0.5" stroke-miterlimit="10" x1="61" y1="43" x2="101" y2="43"/>
	<line fill="none" stroke="#F15A24" stroke-width="0.5" stroke-miterlimit="10" x1="101" y1="43" x2="121" y2="37"/>
	<line fill="none" stroke="#F15A24" stroke-width="0.5" stroke-miterlimit="10" x1="121" y1="37" x2="141" y2="19"/>
	<rect x="0.9" y="60" fill="#F15A24" width="32.1" height="6.1"/>
	<text transform="matrix(1 0 0 1 3.1772 64)" fill="#FFFFFF" font-family="'ProximaNova-Bold'" font-size="2.6">Front-end development</text>
	<rect x="35" y="60" fill="#29ABE2" width="32.1" height="6.1"/>
	<text transform="matrix(1 0 0 1 42.3696 64)" fill="#FFFFFF" font-family="'ProximaNova-Bold'" font-size="2.6">Identity design</text>
	<rect x="69" y="60" fill="#39B54A" width="32.1" height="6.1"/>
	<text transform="matrix(1 0 0 1 78.8423 64)" fill="#FFFFFF" font-family="'ProximaNova-Bold'" font-size="2.6">Illustration</text>
	<rect x="102.9" y="60" fill="#B5641A" width="34.1" height="6.1"/>
	<text transform="matrix(1 0 0 1 105.3589 64)" fill="#FFFFFF" font-family="'ProximaNova-Bold'" font-size="2.6">Whatever comes to mind</text>
</g>
<g id="Layer_2">
	<g>
		<rect x="20" y="42" fill="#29ABE2" width="2" height="2"/>
		<rect x="40" y="42" fill="#29ABE2" width="2" height="2"/>
		<rect x="60" y="36" fill="#29ABE2" width="2" height="2"/>
		<rect x="80" y="24" fill="#29ABE2" width="2" height="2"/>
		<rect x="100" y="36" fill="#29ABE2" width="2" height="2"/>
		<rect x="120" y="24" fill="#29ABE2" width="2" height="2"/>
		<line fill="none" stroke="#29ABE2" stroke-width="0.5" stroke-miterlimit="10" x1="21" y1="43" x2="1" y2="49"/>
		<line fill="none" stroke="#29ABE2" stroke-width="0.5" stroke-miterlimit="10" x1="21" y1="43" x2="41" y2="43"/>
		<line fill="none" stroke="#29ABE2" stroke-width="0.5" stroke-miterlimit="10" x1="41" y1="43" x2="61" y2="37"/>
		<line fill="none" stroke="#29ABE2" stroke-width="0.5" stroke-miterlimit="10" x1="61" y1="37" x2="81" y2="25"/>
		<line fill="none" stroke="#29ABE2" stroke-width="0.5" stroke-miterlimit="10" x1="81" y1="25" x2="101" y2="37"/>
		<line fill="none" stroke="#29ABE2" stroke-width="0.5" stroke-miterlimit="10" x1="101" y1="37" x2="121" y2="25"/>
		<rect x="140" y="12" fill="#29ABE2" width="2" height="2"/>
		<line fill="none" stroke="#29ABE2" stroke-width="0.5" stroke-miterlimit="10" x1="121" y1="25" x2="141" y2="13"/>
	</g>
</g>
<g id="Layer_4">
	<line fill="none" stroke="#39B54A" stroke-width="0.5" stroke-miterlimit="10" x1="1" y1="49" x2="21" y2="43"/>
	<rect x="20" y="42" fill="#39B54A" width="2" height="2"/>
	<rect x="40" y="30" fill="#39B54A" width="2" height="2"/>
	<rect x="60" y="24" fill="#39B54A" width="2" height="2"/>
	<rect x="80" y="18" fill="#39B54A" width="2" height="2"/>
	<rect x="100" y="36" fill="#39B54A" width="2" height="2"/>
	<rect x="120" y="30" fill="#39B54A" width="2" height="2"/>
	<rect x="140" y="6" fill="#39B54A" width="2" height="2"/>
	<line fill="none" stroke="#39B54A" stroke-width="0.5" stroke-miterlimit="10" x1="21" y1="43" x2="41" y2="31"/>
	<line fill="none" stroke="#39B54A" stroke-width="0.5" stroke-miterlimit="10" x1="41" y1="31" x2="61" y2="25"/>
	<line fill="none" stroke="#39B54A" stroke-width="0.5" stroke-miterlimit="10" x1="61" y1="25" x2="81" y2="19"/>
	<line fill="none" stroke="#39B54A" stroke-width="0.5" stroke-miterlimit="10" x1="81" y1="19" x2="101" y2="37"/>
	<line fill="none" stroke="#39B54A" stroke-width="0.5" stroke-miterlimit="10" x1="101" y1="37" x2="121" y2="31"/>
	<line fill="none" stroke="#39B54A" stroke-width="0.5" stroke-miterlimit="10" x1="121" y1="31" x2="141" y2="7"/>
</g>
<g id="Layer_5">
	<rect x="100" y="48" fill="#B5641A" width="2" height="2"/>
	<rect x="120" y="24" fill="#B5641A" width="2" height="2"/>
	<line fill="none" stroke="#B5641A" stroke-width="0.5" stroke-miterlimit="10" x1="101" y1="49" x2="121" y2="25"/>
	<rect x="140" fill="#B5641A" width="2" height="2"/>
	<line fill="none" stroke="#B5641A" stroke-width="0.5" stroke-miterlimit="10" x1="121" y1="25" x2="141" y2="1"/>
</g>
<g id="Layer_1">
	<line fill="none" stroke="#B3B3B3" stroke-width="0.2" stroke-miterlimit="10" x1="1" y1="1" x2="1" y2="49"/>
	<rect x="0" y="48" fill="#B3B3B3" width="2" height="2"/>
	<rect x="20" y="48" fill="#B3B3B3" width="2" height="2"/>
	<rect x="40" y="48" fill="#B3B3B3" width="2" height="2"/>
	<rect x="60" y="48" fill="#B3B3B3" width="2" height="2"/>
	<rect x="80" y="48" fill="#B3B3B3" width="2" height="2"/>
	<rect x="100" y="48" fill="#B3B3B3" width="2" height="2"/>
	<rect x="120" y="48" fill="#B3B3B3" width="2" height="2"/>
	<rect x="140" y="48" fill="#B3B3B3" width="2" height="2"/>
	<rect x="160" y="48" fill="#B3B3B3" width="2" height="2"/>
	<rect y="42" fill="#B3B3B3" width="2" height="2"/>
	<rect y="36" fill="#B3B3B3" width="2" height="2"/>
	<rect y="30" fill="#B3B3B3" width="2" height="2"/>
	<rect y="24" fill="#B3B3B3" width="2" height="2"/>
	<rect y="18" fill="#B3B3B3" width="2" height="2"/>
	<rect y="12" fill="#B3B3B3" width="2" height="2"/>
	<rect y="6" fill="#B3B3B3" width="2" height="2"/>
	<rect fill="#B3B3B3" width="2" height="2"/>
	<line fill="none" stroke="#B3B3B3" stroke-width="0.2" stroke-miterlimit="10" x1="1" y1="49" x2="161" y2="49"/>
	<text transform="matrix(1 0 0 1 17.3311 54)" fill="#B3B3B3" font-family="'ProximaNova-Bold'" font-size="3">2008</text>
	<text transform="matrix(1 0 0 1 37.3281 54)" fill="#B3B3B3" font-family="'ProximaNova-Bold'" font-size="3">2009</text>
	<text transform="matrix(1 0 0 1 57.6235 54)" fill="#B3B3B3" font-family="'ProximaNova-Bold'" font-size="3">2010</text>
	<text transform="matrix(1 0 0 1 77.937 54)" fill="#B3B3B3" font-family="'ProximaNova-Bold'" font-size="3">2011</text>
	<text transform="matrix(1 0 0 1 97.6533 54)" fill="#B3B3B3" font-family="'ProximaNova-Bold'" font-size="3">2012</text>
	<text transform="matrix(1 0 0 1 117.6729 54)" fill="#B3B3B3" font-family="'ProximaNova-Bold'" font-size="3">2013</text>
	<text transform="matrix(1 0 0 1 137.6582 54)" fill="#B3B3B3" font-family="'ProximaNova-Bold'" font-size="3">2014</text>
	<text transform="matrix(1 0 0 1 157.6416 54)" fill="#B3B3B3" font-family="'ProximaNova-Bold'" font-size="3">2015</text>
</g>
</svg>
