<?xml version="1.0" encoding="utf-8"?>
<!-- Generator: Adobe Illustrator 18.0.0, SVG Export Plug-In . SVG Version: 6.00 Build 0)  -->
<!DOCTYPE svg PUBLIC "-//W3C//DTD SVG 1.1//EN" "http://www.w3.org/Graphics/SVG/1.1/DTD/svg11.dtd">
<svg version="1.1" xmlns="http://www.w3.org/2000/svg" xmlns:xlink="http://www.w3.org/1999/xlink" x="0px" y="0px"
	 viewBox="0 0 600 600" enable-background="new 0 0 600 600" xml:space="preserve">
<g id="Layer_3">
	<rect x="244" y="318" fill="#F15A24" width="2" height="2"/>
	<rect x="284" y="324" fill="#F15A24" width="2" height="2"/>
	<rect x="304" y="324" fill="#F15A24" width="2" height="2"/>
	<rect x="324" y="324" fill="#F15A24" width="2" height="2"/>
	<rect x="344" y="318" fill="#F15A24" width="2" height="2"/>
	<rect x="364" y="300" fill="#F15A24" width="2" height="2"/>
	<rect x="264" y="324" fill="#F15A24" width="2" height="2"/>
	<line fill="none" stroke="#F15A24" stroke-width="0.5" stroke-miterlimit="10" x1="245" y1="319" x2="225" y2="325"/>
	<line fill="none" stroke="#F15A24" stroke-width="0.5" stroke-miterlimit="10" x1="245" y1="319" x2="265" y2="325"/>
	<line fill="none" stroke="#F15A24" stroke-width="0.5" stroke-miterlimit="10" x1="265" y1="325" x2="285" y2="325"/>
	<line fill="none" stroke="#F15A24" stroke-width="0.5" stroke-miterlimit="10" x1="285" y1="325" x2="325" y2="325"/>
	<line fill="none" stroke="#F15A24" stroke-width="0.5" stroke-miterlimit="10" x1="325" y1="325" x2="345" y2="319"/>
	<line fill="none" stroke="#F15A24" stroke-width="0.5" stroke-miterlimit="10" x1="345" y1="319" x2="365" y2="301"/>
	<rect x="224.9" y="342" fill="#F15A24" width="32.1" height="6.1"/>
	<text transform="matrix(1 0 0 1 227.1772 346)" fill="#FFFFFF" font-family="'ProximaNova-Bold'" font-size="2.6">Front-end development</text>
	<rect x="259" y="342" fill="#29ABE2" width="32.1" height="6.1"/>
	<text transform="matrix(1 0 0 1 266.3696 346)" fill="#FFFFFF" font-family="'ProximaNova-Bold'" font-size="2.6">Identity design</text>
	<rect x="293" y="342" fill="#39B54A" width="32.1" height="6.1"/>
	<text transform="matrix(1 0 0 1 302.8423 346)" fill="#FFFFFF" font-family="'ProximaNova-Bold'" font-size="2.6">Illustration</text>
	<rect x="326.9" y="342" fill="#B5641A" width="34.1" height="6.1"/>
	<text transform="matrix(1 0 0 1 329.3589 346)" fill="#FFFFFF" font-family="'ProximaNova-Bold'" font-size="2.6">Whatever comes to mind</text>
</g>
<g id="Layer_2">
	<g>
		<rect x="244" y="324" fill="#29ABE2" width="2" height="2"/>
		<rect x="264" y="324" fill="#29ABE2" width="2" height="2"/>
		<rect x="284" y="318" fill="#29ABE2" width="2" height="2"/>
		<rect x="304" y="306" fill="#29ABE2" width="2" height="2"/>
		<rect x="324" y="318" fill="#29ABE2" width="2" height="2"/>
		<rect x="344" y="306" fill="#29ABE2" width="2" height="2"/>
		<line fill="none" stroke="#29ABE2" stroke-width="0.5" stroke-miterlimit="10" x1="245" y1="325" x2="225" y2="331"/>
		<line fill="none" stroke="#29ABE2" stroke-width="0.5" stroke-miterlimit="10" x1="245" y1="325" x2="265" y2="325"/>
		<line fill="none" stroke="#29ABE2" stroke-width="0.5" stroke-miterlimit="10" x1="265" y1="325" x2="285" y2="319"/>
		<line fill="none" stroke="#29ABE2" stroke-width="0.5" stroke-miterlimit="10" x1="285" y1="319" x2="305" y2="307"/>
		<line fill="none" stroke="#29ABE2" stroke-width="0.5" stroke-miterlimit="10" x1="305" y1="307" x2="325" y2="319"/>
		<line fill="none" stroke="#29ABE2" stroke-width="0.5" stroke-miterlimit="10" x1="325" y1="319" x2="345" y2="307"/>
		<rect x="364" y="294" fill="#29ABE2" width="2" height="2"/>
		<line fill="none" stroke="#29ABE2" stroke-width="0.5" stroke-miterlimit="10" x1="345" y1="307" x2="365" y2="295"/>
	</g>
</g>
<g id="Layer_4">
	<line fill="none" stroke="#39B54A" stroke-width="0.5" stroke-miterlimit="10" x1="225" y1="331" x2="245" y2="325"/>
	<rect x="244" y="324" fill="#39B54A" width="2" height="2"/>
	<rect x="264" y="312" fill="#39B54A" width="2" height="2"/>
	<rect x="284" y="306" fill="#39B54A" width="2" height="2"/>
	<rect x="304" y="300" fill="#39B54A" width="2" height="2"/>
	<rect x="324" y="318" fill="#39B54A" width="2" height="2"/>
	<rect x="344" y="312" fill="#39B54A" width="2" height="2"/>
	<rect x="364" y="288" fill="#39B54A" width="2" height="2"/>
	<line fill="none" stroke="#39B54A" stroke-width="0.5" stroke-miterlimit="10" x1="245" y1="325" x2="265" y2="313"/>
	<line fill="none" stroke="#39B54A" stroke-width="0.5" stroke-miterlimit="10" x1="265" y1="313" x2="285" y2="307"/>
	<line fill="none" stroke="#39B54A" stroke-width="0.5" stroke-miterlimit="10" x1="285" y1="307" x2="305" y2="301"/>
	<line fill="none" stroke="#39B54A" stroke-width="0.5" stroke-miterlimit="10" x1="305" y1="301" x2="325" y2="319"/>
	<line fill="none" stroke="#39B54A" stroke-width="0.5" stroke-miterlimit="10" x1="325" y1="319" x2="345" y2="313"/>
	<line fill="none" stroke="#39B54A" stroke-width="0.5" stroke-miterlimit="10" x1="345" y1="313" x2="365" y2="289"/>
</g>
<g id="Layer_5">
	<rect x="324" y="330" fill="#B5641A" width="2" height="2"/>
	<rect x="344" y="306" fill="#B5641A" width="2" height="2"/>
	<line fill="none" stroke="#B5641A" stroke-width="0.5" stroke-miterlimit="10" x1="325" y1="331" x2="345" y2="307"/>
	<rect x="364" y="282" fill="#B5641A" width="2" height="2"/>
	<line fill="none" stroke="#B5641A" stroke-width="0.5" stroke-miterlimit="10" x1="345" y1="307" x2="365" y2="283"/>
</g>
<g id="Layer_1">
	<line fill="none" stroke="#B3B3B3" stroke-width="0.2" stroke-miterlimit="10" x1="225" y1="283" x2="225" y2="331"/>
	<rect x="224" y="330" fill="#B3B3B3" width="2" height="2"/>
	<rect x="244" y="330" fill="#B3B3B3" width="2" height="2"/>
	<rect x="264" y="330" fill="#B3B3B3" width="2" height="2"/>
	<rect x="284" y="330" fill="#B3B3B3" width="2" height="2"/>
	<rect x="304" y="330" fill="#B3B3B3" width="2" height="2"/>
	<rect x="324" y="330" fill="#B3B3B3" width="2" height="2"/>
	<rect x="344" y="330" fill="#B3B3B3" width="2" height="2"/>
	<rect x="364" y="330" fill="#B3B3B3" width="2" height="2"/>
	<rect x="384" y="330" fill="#B3B3B3" width="2" height="2"/>
	<rect x="224" y="324" fill="#B3B3B3" width="2" height="2"/>
	<rect x="224" y="318" fill="#B3B3B3" width="2" height="2"/>
	<rect x="224" y="312" fill="#B3B3B3" width="2" height="2"/>
	<rect x="224" y="306" fill="#B3B3B3" width="2" height="2"/>
	<rect x="224" y="300" fill="#B3B3B3" width="2" height="2"/>
	<rect x="224" y="294" fill="#B3B3B3" width="2" height="2"/>
	<rect x="224" y="288" fill="#B3B3B3" width="2" height="2"/>
	<rect x="224" y="282" fill="#B3B3B3" width="2" height="2"/>
	<line fill="none" stroke="#B3B3B3" stroke-width="0.2" stroke-miterlimit="10" x1="225" y1="331" x2="385" y2="331"/>
	<text transform="matrix(1 0 0 1 241.3311 336)" fill="#B3B3B3" font-family="'ProximaNova-Bold'" font-size="3">2008</text>
	<text transform="matrix(1 0 0 1 261.3281 336)" fill="#B3B3B3" font-family="'ProximaNova-Bold'" font-size="3">2009</text>
	<text transform="matrix(1 0 0 1 281.6235 336)" fill="#B3B3B3" font-family="'ProximaNova-Bold'" font-size="3">2010</text>
	<text transform="matrix(1 0 0 1 301.937 336)" fill="#B3B3B3" font-family="'ProximaNova-Bold'" font-size="3">2011</text>
	<text transform="matrix(1 0 0 1 321.6533 336)" fill="#B3B3B3" font-family="'ProximaNova-Bold'" font-size="3">2012</text>
	<text transform="matrix(1 0 0 1 341.6729 336)" fill="#B3B3B3" font-family="'ProximaNova-Bold'" font-size="3">2013</text>
	<text transform="matrix(1 0 0 1 361.6582 336)" fill="#B3B3B3" font-family="'ProximaNova-Bold'" font-size="3">2014</text>
	<text transform="matrix(1 0 0 1 381.6416 336)" fill="#B3B3B3" font-family="'ProximaNova-Bold'" font-size="3">2015</text>
</g>
</svg>
