<?xml version="1.0" encoding="utf-8"?>
<!-- Generator: Adobe Illustrator 18.0.0, SVG Export Plug-In . SVG Version: 6.00 Build 0)  -->
<!DOCTYPE svg PUBLIC "-//W3C//DTD SVG 1.1//EN" "http://www.w3.org/Graphics/SVG/1.1/DTD/svg11.dtd">
<svg version="1.1" id="Layer_1" xmlns="http://www.w3.org/2000/svg" xmlns:xlink="http://www.w3.org/1999/xlink" x="0px" y="0px"
	 viewBox="0 0 600 600" enable-background="new 0 0 600 600" xml:space="preserve">
<g>
	<polygon fill="#B5641A" points="479.3,121 479.3,240.7 359.6,240.7 239.8,240.7 239.8,360.5 239.8,480.2 359.6,480.2 359.6,360.5 
		479.3,360.5 479.3,480.2 479.3,600 599.1,600 599.1,480.2 599.1,360.5 599.1,240.7 599.1,121 	"/>
	<polygon fill="#B5641A" points="359.6,1.2 239.8,1.2 120.1,1.2 120.1,121 239.8,121 359.6,121 479.3,121 479.3,1.2 	"/>
	<polygon fill="#B5641A" points="0.3,240.7 0.3,360.5 0.3,480.2 0.3,600 120.1,600 120.1,480.2 120.1,360.5 120.1,240.7 120.1,121 
		0.3,121 	"/>
</g>
</svg>
