<?xml version="1.0" encoding="utf-8"?>
<!-- Generator: Adobe Illustrator 18.0.0, SVG Export Plug-In . SVG Version: 6.00 Build 0)  -->
<!DOCTYPE svg PUBLIC "-//W3C//DTD SVG 1.1//EN" "http://www.w3.org/Graphics/SVG/1.1/DTD/svg11.dtd">
<svg version="1.1" id="Layer_1" xmlns="http://www.w3.org/2000/svg" xmlns:xlink="http://www.w3.org/1999/xlink" x="0px" y="0px"
	 viewBox="0 200 600 200" enable-background="new 0 200 600 200" xml:space="preserve">
<g>
	<path fill="#FAFAFA" d="M348.9,327.8c-11.8,0-21.4-9.6-21.4-21.4c0-5.3,1.9-10.2,5.2-13.9c-7-7.6-13.2-14.3-17.3-18.8l0,0
		c-2.9-3.1-4.8-5.3-5.5-5.9c-3-3.3-7-5.2-10.5-5.2c-2.1,0-4.2,0.6-6.1,2c-1.5,1.1-2.9,2.7-4.2,4.9c-0.9,1.6-1.9,4-2.5,5.4
		c-1.3,3-2.8,6.8-4.5,11.1c-1.7,4.3-3.5,8.7-5.3,13c-1.7,4.3-3.3,8.3-4.8,11.8c-1.5,3.5-2.6,6.1-3.2,7.5c-0.6-1.5-1.8-4.1-3.4-7.7
		c-1.6-3.7-3.3-7.9-5.4-12.7c-1.9-4.8-4.1-10-6.2-15.7c-1.2-3.2-2.6-6.8-3.9-10.3c-1.4-3.7-3.3-6-5.4-7.5c-2.1-1.5-4.5-2.1-6.9-2.1
		c-4.1,0-8.2,1.9-10.7,4.9c-0.9,1-2.7,3.1-5.3,6c-4.5,5.2-11.1,12.7-16.9,19.3c3,3.7,4.8,8.4,4.8,13.5c0,11.8-9.6,21.4-21.4,21.4
		s-21.4-9.6-21.4-21.4c0-11.8,9.6-21.4,21.4-21.4c4.1,0,7.9,1.2,11.2,3.2c0.9-1,1.7-1.9,2.6-2.9c5-5.8,10.2-11.7,14.1-16.1
		c-2.8-1.9-5.9-3.5-9.2-4.8c-5.8-2.4-12-3.4-18.6-3.4c-6.7,0-12.9,1.2-18.6,3.4c-5.8,2.4-10.8,5.5-15.1,9.6c-3.2,3-5.9,6.4-8.1,10.2
		c-0.3-0.9-0.6-1.7-1.1-2.5c-2.3-4.6-5.4-8.4-9.2-11.4c-3.9-3-8.5-5.4-13.7-7c-5.3-1.6-10.8-2.4-16.6-2.4c-6,0-11.6,0.8-16.8,2.4
		c-5.2,1.6-9.8,3.9-13.7,7c-4,3-7.1,6.9-9.3,11.4c-2.3,4.6-3.4,9.8-3.4,15.7v52.3h27.3v-46.1c0-11.7,5.3-17.6,15.9-17.6
		c5,0,9,1.4,11.7,4.3c2.7,2.9,4.1,7.3,4.1,13.3v46.1h27.4v-17.3c1.7,2.4,3.7,4.6,5.8,6.7c4.3,4.1,9.5,7.3,15.1,9.6
		c5.8,2.4,11.9,3.4,18.6,3.4c6.6,0,12.8-1.2,18.6-3.4c5.8-2.3,10.8-5.5,15.3-9.6c4.4-4.1,7.7-8.9,10.2-14.4c1.8-4.1,3-8.5,3.4-13.1
		c0.1,0.2,0.2,0.4,0.3,0.6c2.7,5.7,5.7,11.8,9,18.4s6.8,12.9,10.2,19.1h25.2c1.3-2.4,3-5.7,5.3-10.1c2.3-4.3,4.7-9.2,7.3-14.6
		s5.3-11,7.9-16.8c0.2,5.9,1.4,11.4,3.7,16.4c2.5,5.6,5.9,10.3,10.2,14.4c4.3,4.1,9.5,7.3,15.1,9.6c5.8,2.4,11.9,3.4,18.6,3.4
		c6.6,0,12.8-1.2,18.6-3.4c4.1-1.6,7.7-3.7,11.1-6.1c-4.8-5.3-10.8-11.7-17.2-18.6C357.9,326.3,353.6,327.8,348.9,327.8z
		 M535.8,291.2c-1.4-5.3-3.4-9.8-6-13.4c-4.2-5.7-9.5-10-15.9-12.9c-6.4-2.9-13.6-4.4-21.5-4.4c-6.4,0-12.5,1.1-17.9,3.3
		c-3.1,1.2-5.9,2.8-8.6,4.5v-41c-0.6-0.2-2.3-0.8-4.6-1.4c-2.5-0.8-5.2-1.1-8.3-1.1c-4.3,0-7.7,0.9-10.3,2.7s-3.9,4.9-3.9,9.3V269
		c-2.3-1.8-4.9-3.9-9.2-5.6c-4.3-1.7-9.3-2.5-15.7-2.5c-5.8,0-11.2,1.1-16.2,3.3c-5,2.3-9.6,5.3-13.3,9.2c-0.3,0.3-0.6,0.8-1,1.1
		c-0.2-0.2-0.3-0.3-0.5-0.5c-4.4-4.1-9.5-7.3-15.3-9.6c-5.8-2.4-12-3.4-18.6-3.4c-6.7,0-12.9,1.2-18.6,3.4c-3.4,1.4-6.6,3-9.5,5
		c4.2,4.5,10.3,11.2,17.2,18.7c3.2-1.8,6.9-2.9,10.8-2.9c11.8,0,21.4,9.6,21.4,21.4c0,4.6-1.4,8.8-3.9,12.2
		c5.2,5.7,10.1,11,14.4,15.7c0.9,1,1.7,2,2.7,3c0.1,0.1,0.3,0.3,0.4,0.4l0,0c0.3,0.3,0.6,0.6,1.1,1c4.5,4.1,9.7,7.3,15.7,9.6
		c5.9,2.4,12.4,3.4,19.2,3.4c6.8,0,13.1-1.2,19.1-3.4c6-2.4,11.3-5.5,15.8-9.6c0.8-0.6,1.4-1.3,2-2l0,0l17.3-17.6
		c-2.7-3.5-4.2-7.9-4.2-12.7c0-11.8,9.6-21.4,21.4-21.4c11.8,0,21.4,9.6,21.4,21.4c0,11.8-9.6,21.4-21.4,21.4
		c-4.5,0-8.7-1.4-12.1-3.8l-17.5,17.8c3,2.7,6.3,4.8,10.1,6.6c4.9,2.3,10.2,3.3,15.7,3.3c6.1,0,11.2-1.1,15.1-3.1s7-4.2,8.9-6.2
		c0,0,0.1-0.1,0.1-0.2c0.3,3.3,1.5,5.5,3.7,7c2.5,1.8,5.8,2.7,10,2.7c3,0,5.6-0.3,7.9-1.1c2.4-0.8,3.9-1.2,4.5-1.4v-39.4
		C537.9,302.8,537.2,296.6,535.8,291.2z M418.3,327.5c-11.6,0-21.1-9.5-21.1-21.1s9.5-21.1,21.1-21.1s21.1,9.5,21.1,21.1
		C439.4,318.1,430,327.5,418.3,327.5z"/>
</g>
<circle fill="#FAFAFA" cx="188.3" cy="306.5" r="13.2"/>
<circle fill="#FAFAFA" cx="348.9" cy="306.5" r="13.2"/>
<circle fill="#FAFAFA" cx="491.4" cy="306.5" r="13.2"/>
</svg>
