<?xml version="1.0" encoding="utf-8"?>
<!-- Generator: Adobe Illustrator 18.0.0, SVG Export Plug-In . SVG Version: 6.00 Build 0)  -->
<!DOCTYPE svg PUBLIC "-//W3C//DTD SVG 1.1//EN" "http://www.w3.org/Graphics/SVG/1.1/DTD/svg11.dtd">
<svg version="1.1" id="Layer_1" xmlns="http://www.w3.org/2000/svg" xmlns:xlink="http://www.w3.org/1999/xlink" x="0px" y="0px"
	 viewBox="0 200 600 200" enable-background="new 0 200 600 200" xml:space="preserve">
<g id="Layer_2">
</g>
<g id="Layer_1_2_">
	<g id="Layer_1_1_">
		<g>
			<g>
				<path fill="#424852" d="M89.6,293.3c0,0,3.1-50.2-11.3-75.3c0,0,32,25.2,88,4.5c0,0,3.5,56.2,3.5,70.6H89.6V293.3z"/>
				<path fill="#7F8592" d="M165,292.8l-9.3-56.4c0,0,53.1-19.4,76.1,3.9c0,0,25.1,24.4,21.8,52.9L165,292.8z"/>
				<path fill="#545966" d="M249.8,293.3c0,0-1.8-61.9-10.7-77.5c0,0,49.8,37.5,95.1,8.3c0,0-9.6,66.2-11.3,67.9v1.3H249.8
					L249.8,293.3z"/>
				<polygon fill="#636976" points="282.4,292.8 402.3,217.1 380.5,293.1 				"/>
				<path fill="#A3A9B6" d="M374.3,293.1l15.4-39.9c0,0,8.7-21,30.7-22.5c0,0,28.2,1.1,31.1,24.6l-2.9,32.9v4.9H374.3z"/>
				<path fill="#636976" d="M503,292.7c0,0-13.6-27,10.5-73.2L437,235.3c0,0,7.4,48.7,11.5,57.4H503z"/>
				<path fill="#6F7582" d="M88.4,302.9h83.7l9.2,78.7c0,0-33.8-32.5-106.9-8.3L88.4,302.9z"/>
				<path fill="#B2B8C5" d="M159.7,302.8l16.4,62.9c0,0,42.4,41.8,75.5-18.7v-44.2H159.7L159.7,302.8z"/>
				<path fill="#2F3642" d="M307.1,379.3l11.9-78.1h-21.6l-47.9,1.8L234,380.7C234,380.7,282,359.4,307.1,379.3"/>
				<polygon fill="#636976" points="343.5,384.9 282.3,302.9 375.8,302.6 				"/>
				<path fill="#2F3642" d="M373.3,302.2l-15.7,54.9c0,0,27.4,36,75.1,18c0,0,16.4-70.5,22.5-72.9H373.3L373.3,302.2z"/>
				<path fill="#9096A3" d="M441.8,302.2V374h67.6c0,0,1.3-28,18.1-56.3c0,0-15.4-8-20.1-14.9L441.8,302.2z"/>
				<path fill="#1B2130" d="M167.5,232.8c-7,1.8-11.8,3.6-11.8,3.6l9.3,56.7l5.6,0.5C170.9,273.5,167,253.3,167.5,232.8"/>
				<path fill="#29303E" d="M247.3,261.9c1.3,16.1,1.8,32.1,1.8,32.1h4.3C254.3,283.8,253.1,270.4,247.3,261.9"/>
				<polygon fill="#1E2533" points="281.9,292.9 328.1,263.8 322.9,292.9 				"/>
				<path fill="#424852" d="M374.3,293.1c0,0,13.9-43.1,19.6-47.2l-12.9,47.2H374.3z"/>
				<path fill="#424852" d="M436.7,234.8l9.5,58.5h2.7c0,0,3-36.9,3-38.7C451.8,254.6,449.2,238.5,436.7,234.8"/>
				<path fill="#505560" d="M159.5,302.8l12.5,0.1l7.7,65.8c0,0-1-0.4-3.8-3.2L159.5,302.8z"/>
				<path fill="#1E2533" d="M237.5,366.9c0,0,12-14.9,13.6-19.6l0.6-44.5l-1.9,0.1L237.5,366.9z"/>
				<polygon fill="#0D1320" points="281.1,301.9 319.1,301.8 312.4,344.1 				"/>
				<polygon fill="#0D1320" points="372.6,302.6 364.1,334.7 376.2,302.2 				"/>
				<polygon fill="#181F2E" points="441.3,341.3 455,302.5 440.9,302.2 				"/>
				<rect x="87.8" y="291.5" fill="#FFFFFF" width="424.1" height="12.4"/>
			</g>
			<g>
				<g>
					<path fill="#FFFFFF" d="M177.8,243.8l-4,10.8h-41l-3.7,10h33.2c1.3,0,2.6,0.4,3.8,1c1.4,0.7,2.3,1.7,2.3,3
						c0,0.4-2.5,7.3-7.4,20.5c-0.5,1.4-1.9,2.7-4,3.7c-1.9,1-3.8,1.3-5.6,1.3h-48.6l-3.7-10.8h41l3.7-10h-33c-1.3,0-2.6-0.4-3.8-1
						c-1.4-0.7-2.3-1.7-2.3-3c0-0.4,2.5-7.3,7.4-20.5c0.5-1.4,1.8-2.7,4-3.7c1.9-0.8,3.8-1.3,5.6-1.3
						C121.5,243.8,177.8,243.8,177.8,243.8z"/>
					<path fill="#FFFFFF" d="M251.5,243.8l-29.8,25.1L233,294h-26.9l-7.6-17.3L192,294h-23l18.6-50.2h23l-6.4,17.3l20.6-17.3H251.5z
						"/>
					<path fill="#FFFFFF" d="M284.4,243.8L265.8,294h-23l18.5-50.2H284.4z"/>
					<path fill="#FFFFFF" d="M339.5,294h-63.9l18.7-50.2h23l-14.5,39.4H336L339.5,294z"/>
					<path fill="#FFFFFF" d="M410.7,294h-63.9l18.6-50.2h23l-14.5,39.4H407L410.7,294z"/>
					<path fill="#FFFFFF" d="M492.8,243.8l-4,10.8h-41l-3.7,10h33.2c1.3,0,2.6,0.4,3.8,1c1.4,0.7,2.3,1.7,2.3,3
						c0,0.4-2.5,7.3-7.4,20.5c-0.5,1.4-1.9,2.7-4,3.7c-1.9,1-3.8,1.3-5.6,1.3H418l-3.7-10.8h41l3.7-10h-33.2c-1.3,0-2.6-0.4-3.8-1
						c-1.4-0.7-2.3-1.7-2.3-3c0-0.4,2.5-7.3,7.4-20.5c0.5-1.4,1.8-2.7,4-3.7c1.9-0.8,3.8-1.3,5.6-1.3
						C436.6,243.8,492.8,243.8,492.8,243.8z"/>
				</g>
				<g>
					<path fill="#FFFFFF" d="M186.5,306.6c0,0.4-0.1,0.7-0.2,1.1l-14.6,40h-20.2l12.9-34.9h-15.7l-12.9,34.9h-20.2l12.9-34.9h-15.7
						l-12.9,34.9H79.5l16.3-44.5h85.4c1.2,0,2.3,0.2,3.3,0.8C185.9,304.6,186.5,305.6,186.5,306.6z"/>
					<path fill="#FFFFFF" d="M252.3,347.7h-45l3.6-9.6h16.4l-4.5-17l-26.7,26.7h-22.5l44.4-44.5h22.5L252.3,347.7z"/>
					<path fill="#FFFFFF" d="M316.3,303.2l-3.6,9.6h-18l-12.9,34.9h-20.2l12.9-34.9h-18l3.6-9.6H316.3z"/>
					<path fill="#FFFFFF" d="M381.1,303.2l-3.6,9.6h-17.9l-12.9,34.9h-20.2l12.9-34.9h-18l3.6-9.6
						C324.9,303.2,381.1,303.2,381.1,303.2z"/>
					<path fill="#FFFFFF" d="M445.9,303.2l-10.2,9.6h-29.2l-3.3,8.9h29.2l-2.7,7.4h-29.2l-3.3,8.9h36l-10.2,9.6h-49.4l16.3-44.5
						C389.7,303.2,445.9,303.2,445.9,303.2z"/>
					<path fill="#FFFFFF" d="M507.1,306.6c0,0.4-2.1,6.4-6.4,18.1c-0.5,1.3-1.7,2.4-3.6,3.2c-1.7,0.8-3.3,1.2-4.9,1.2h-3.9l6.1,18.6
						h-18l-8.5-26h13.5l3.3-8.9H469l-12.9,34.9h-20.2l16.3-44.5h49.4c1.2,0,2.3,0.2,3.3,0.8C506.5,304.6,507.1,305.6,507.1,306.6z"
						/>
				</g>
			</g>
		</g>
	</g>
</g>
</svg>
