<?xml version="1.0" encoding="utf-8"?>
<!-- Generator: Adobe Illustrator 18.0.0, SVG Export Plug-In . SVG Version: 6.00 Build 0)  -->
<!DOCTYPE svg PUBLIC "-//W3C//DTD SVG 1.1//EN" "http://www.w3.org/Graphics/SVG/1.1/DTD/svg11.dtd">
<svg version="1.1" id="Layer_1" xmlns="http://www.w3.org/2000/svg" xmlns:xlink="http://www.w3.org/1999/xlink" x="0px" y="0px"
	 viewBox="0 200 600 200" enable-background="new 0 200 600 200" xml:space="preserve">
<g>
	<path fill="#2F3642" d="M543.7,323.8c-4.2,0-7.7,3.4-7.7,7.6s3.4,7.7,7.7,7.7c4.2,0,7.6-3.4,7.6-7.7
		C551.2,327.2,547.8,323.8,543.7,323.8L543.7,323.8L543.7,323.8L543.7,323.8z M543.7,338c-3.7,0-6.6-3-6.6-6.7s3-6.6,6.6-6.6
		c3.7,0,6.6,3,6.6,6.6C550.3,335,547.3,338,543.7,338L543.7,338L543.7,338L543.7,338z"/>
	<path fill="#2F3642" d="M547.5,329.3c0-0.7-0.3-1.5-0.9-1.8c-0.6-0.4-1.4-0.5-2-0.5l0,0h-3.7v8.5h1v-3.9h1.9l2.4,3.9h1.2l-2.6-3.9
		l0,0C546.3,331.6,547.5,331,547.5,329.3L547.5,329.3L547.5,329.3L547.5,329.3z M543.4,330.9h-1.6v-3h2.4l0,0c1,0,2.2,0.2,2.2,1.5
		C546.4,331.1,544.6,330.9,543.4,330.9L543.4,330.9L543.4,330.9L543.4,330.9z"/>
	<path fill="#2F3642" d="M499.1,288.2l15.5-16.6l0,0c0.9-1.2,1.4-2,1.4-2.8c0-1.2-1-1.7-4.3-1.7l0,0h-3.9v-10.5h42.5V267h-5.5l0,0
		c-6.5,0-7.7,1-16.6,12.3l0,0L503.5,306v16.2l0,0c0,4.2,2.1,5.6,8.1,5.6l0,0h9.1v10.1h-59.4v-10.1h9.3l0,0c6,0,8.1-1.5,8.1-5.6l0,0
		V306l-29-32l0,0c-4.8-5.6-4.2-6.8-17.4-6.8l0,0v-10.4H486v10.4h-3.8l0,0c-3.9,0-5.5,0.7-5.5,2.2c0,1.2,1.2,2.2,1.9,3.1l0,0l14.7,16
		l0,0C495,290.4,497.1,290.6,499.1,288.2L499.1,288.2L499.1,288.2L499.1,288.2z"/>
	<path fill="#2F3642" d="M138.4,256.7h12.9V286h-12l0,0c-1-5.8-4.7-8.1-8-11.2c-6-5.5-19-10.2-30-10.2c-14.1,0-26,4.4-26,10.8
		c0,17.9,80.9,3.7,80.9,37.5c0,17.6-17.4,27.5-48.5,27.5c-10.8,0-27-3.3-36.6-8.5c-3-1.8-4.3,1.7-4.9,5.9l0,0H53v-30.2h12l0,0
		c2.7,7.7,6.3,9.2,9.7,12.3c5.8,5.4,19.8,9.2,32.4,9.1c19.2-0.2,25.8-4.3,25.8-10.4s-6.6-7.6-27.6-10.8l0,0l-17.8-3l0,0
		c-20.1-3-34.8-7.6-34.8-23.6c0-16.7,18.6-27.1,47.9-27.1c12.4,0,22.7,1.7,32.7,7.3C135.9,263.2,138.5,263.4,138.4,256.7
		L138.4,256.7L138.4,256.7L138.4,256.7z"/>
	<path fill="#2F3642" d="M391.4,305.6l0.3-32.5l0,0c0-4.2-2.2-5.7-8.6-5.7l0,0h-7.5v-10.1H423v10.2h-6.2l0,0c-6.4,0-8.6,1.5-8.6,5.7
		l0,0v65.4l-18.6-0.2l-60-56.9v41.4l0,0c0,4.2,2.2,5.7,8.6,5.7l0,0h8.2v10h-49.1v-10h8.1l0,0c6.4,0,8.6-1.6,8.6-5.7l0,0v-49.7l0,0
		c0-4.2-2.2-5.7-8.6-5.7l0,0h-8.1v-10.2h42.6L391.4,305.6L391.4,305.6L391.4,305.6z"/>
	<path fill="#2F3642" d="M232.9,253.5c-37.8,0-61.4,16.7-61.4,43.5c0,26.3,23.3,42.8,60.2,42.8c39.2,0,62-16.3,62-44.2
		C293.7,270.6,269.1,253.5,232.9,253.5L232.9,253.5L232.9,253.5L232.9,253.5z M232,329.3c-20.9,0-32.9-12.1-32.9-32.9
		c0-20.3,12.6-32.4,34-32.4c20.6,0,32.6,12.3,32.6,33.2C265.6,317.7,253.4,329.3,232,329.3L232,329.3L232,329.3L232,329.3z"/>
</g>
</svg>
